<svg xmlns="http://www.w3.org/2000/svg" viewBox="0 0 217.17 217.17"><title>Asset 1</title><g id="Layer_2" data-name="Layer 2"><g id="Layer_2-2" data-name="Layer 2"><path d="M64.17,75.15a1.5,1.5,0,0,1,2.12-.05c1.77,1.68,7.44,1.25,8.66,0a1.5,1.5,0,0,1,2.12,2.12c-1.24,1.24-3.89,1.95-6.55,1.95-2.45,0-4.91-.6-6.3-1.92A1.5,1.5,0,0,1,64.17,75.15Z"/><path d="M143.06,74.5a10.28,10.28,0,0,0,6.07-1.74,1.5,1.5,0,1,0-1.82-2.38c-1.92,1.47-6.56,1.49-8.29,0a1.5,1.5,0,0,0-1.93,2.29A9.55,9.55,0,0,0,143.06,74.5Z"/><path d="M70.52,79.19c2.66,0,5.3-.7,6.55-1.95a1.5,1.5,0,0,0-2.12-2.12c-1.22,1.22-6.89,1.66-8.66,0a1.5,1.5,0,0,0-2.07,2.17C65.61,78.59,68.07,79.19,70.52,79.19Z"/><path d="M63.11,95.86A1.5,1.5,0,0,0,63.48,98c2.85,2,9.55,2.39,13,0a1.5,1.5,0,1,0-1.7-2.47c-2.49,1.71-7.79,1.25-9.58,0A1.5,1.5,0,0,0,63.11,95.86Z"/><path d="M148.13,94.47a1.5,1.5,0,0,0-.5.09,14.68,14.68,0,0,1-9.5,0A1.5,1.5,0,0,0,137,97.36a17.49,17.49,0,0,0,11.64,0,1.5,1.5,0,0,0-.5-2.91Z"/><path d="M162.13,141.92c-.1-4.53-.56-9.37-1.07-14.61a235.68,235.68,0,0,1-1.43-24.2c.14-35.73-.46-61.72-9.48-70.77a10.33,10.33,0,0,0-7.52-3.24,8.31,8.31,0,0,0-6,2.7c-8.34,8.45-10.46,39.07-11,57.66A16.05,16.05,0,0,0,122,88.24c-6.48-1.38-15.13.2-19.27,3.52-1.45,1.16-2.52,4.07-3.31,7.7A15.74,15.74,0,0,0,94.53,97a18.87,18.87,0,0,0-9.73-.33c.33-12.43.23-44.37-9.14-53.08a9,9,0,0,0-7.39-2.49C56,42.66,55.91,67.9,55.82,99.87c0,6.66,0,13.55-.19,20.17-.08,3.44-.21,6.55-.34,9.56-.56,13-1,22.45,4.65,33.83,6.93,14,23.94,23.43,44.4,24.54q1.94.11,3.86.11c20.75,0,39.27-9.13,49-24.36,3.64-5.72,4.86-11.92,5-18.88A20.52,20.52,0,0,0,162.13,141.92Zm-30.6-43.27c.1-18.47,1.83-55,9.38-62.63.91-.92,1.52-.92,1.72-.92a4.42,4.42,0,0,1,3.27,1.47c8,8,7.83,41.82,7.73,66.52a240.55,240.55,0,0,0,1.46,24.79l.07.75c-5.85-5.37-14.8-9.32-24.85-12.71C131.35,108.52,131.9,102.79,131.53,98.65Zm-24.91-2.3c2.54-1.92,9.19-3.3,14.17-2.24,2.14.46,3.63,1.3,4.18,2.37a6.71,6.71,0,0,1,.56,2.23,32.34,32.34,0,0,1,0,5.16c-.16,3-.56,6.5-1.05,10.19-4.29-1.33-8.69-2.59-13.06-3.84a61.63,61.63,0,0,0-7.31-1.66C104.77,102.93,105.73,97.66,106.62,96.35Zm-23.2,7.18a12.57,12.57,0,0,1,9.37-.76c2.3.7,3.74,1.84,4.13,2.6a13.21,13.21,0,0,1,.53,2.8c-3.58.26-6.21,1.42-7.93,3.5-4.4,5.3-1,13.88,2.44,20.77,1,2,2.95,3.75,5.52,5.44-.44,7.09-1.17,12.91-2.17,14.34-1.48,1.85-6.38,3.22-10.5,2.21-2.95-.72-4.7-2.38-5.21-4.93a35.07,35.07,0,0,1-.52-5,1.47,1.47,0,0,0,1.92-.7c1.24-2.46,2.77-3.92,4.56-4.33,2.47-.58,4.95.92,6.2,1.86a1.5,1.5,0,0,0,1.8-2.4c-2.9-2.17-6-3-8.69-2.38A9.49,9.49,0,0,0,79,141.19C78.9,127.89,81.32,106.94,83.42,103.54ZM156.06,147a27.38,27.38,0,0,1-4,13.48c-10.91,17.14-31.67,22.33-47.44,21.48-18-1-33.47-9.3-39.34-21.2-4.94-10-4.58-18.32-4-30.92.13-3,.27-6.18.35-9.68.15-6.67.17-13.59.19-20.28,0-14.19.08-27.59,1.3-37.68C64.7,49,67.76,47.23,69,47.08a3,3,0,0,1,2.57.93c6.64,6.17,7.88,34.57,7.12,51.83-1.42,2-3.31,7.32-4.75,22.56-.94,10-1.39,22.6-.25,28.29,1,4.83,4.49,8.32,9.68,9.58a18.8,18.8,0,0,0,4.43.52c4.92,0,9.78-1.81,12.18-4.81a7.45,7.45,0,0,0,1-1.8,16.2,16.2,0,0,0,1.29,1.52,65.73,65.73,0,0,0-7,10.74,1.5,1.5,0,0,0,.67,2,1.48,1.48,0,0,0,.67.16,1.5,1.5,0,0,0,1.34-.83,66.22,66.22,0,0,1,6.57-10.12,15.38,15.38,0,0,0,8.57,2.8h.19a12.37,12.37,0,0,0,10.7-5.55,11.48,11.48,0,0,1,2.62,6.38,3,3,0,0,0,3,2.81h.07a3.09,3.09,0,0,0,2.91-3.39c0-.39-.08-.77-.13-1.15-.67-4.51-3.2-8.25-6.64-11.43-.88-.82-1.82-1.6-2.81-2.35s-1.84-1.35-2.81-2a124.84,124.84,0,0,0-11.31-6.39c-1.74-.9-3.56-1.85-5.23-2.79-1.23-.69-2.39-1.38-3.37-2.05a12.8,12.8,0,0,1-2.51-2.1,3.69,3.69,0,0,1-.49-.71c-4.67-9.33-4.31-12.9-3.19-14.25.31-.38,1.21-1.11,3.52-1.33h.19a18.39,18.39,0,0,1,2.79,0c.87.06,1.85.18,3,.37l.22,0a58.18,58.18,0,0,1,6,1.41l3.75,1.08a1.49,1.49,0,0,0-.35.58,6,6,0,0,1-3.75,4.2,8.48,8.48,0,0,1-5.51-.23,14,14,0,0,1-3.21-1.61l-.11-.07-.09,0-.17-.1a1.5,1.5,0,0,0-2.14.81,1.56,1.56,0,0,0,.76,1.85l.13.07c.45.3.91.57,1.37.82a15.82,15.82,0,0,0,3.46,1.4,12.7,12.7,0,0,0,3.28.46,9.78,9.78,0,0,0,3.22-.52,9,9,0,0,0,5.63-6.12,1.48,1.48,0,0,0,0-.75q3.92,1.15,7.55,2.3l2.89.93,2.88,1c14.64,5.07,24.56,10.55,26.44,18.7a12.86,12.86,0,0,1,.26,3.16Zm-52.9-4.42c0-.45.08-.89.12-1.36l2.87,1.5c2.45,1.27,5,2.59,7.4,4,1.33.77,2.63,1.56,3.85,2.39q1.07.72,2.06,1.47c-.86,2.67-3.55,3.88-6.17,3.88h-.11a9.2,9.2,0,0,1-4.51-1.26,9.68,9.68,0,0,1-2.33-1.91A13.81,13.81,0,0,1,103.16,142.59Z"/><path d="M0,0V217.17H217.17V0ZM10.26,206.91V10.26H206.91V206.91Z"/></g></g></svg>